<svg id="SvgjsSvg1001" width="288" height="288" xmlns="http://www.w3.org/2000/svg" version="1.1" xmlns:xlink="http://www.w3.org/1999/xlink" xmlns:svgjs="http://svgjs.com/svgjs"><defs id="SvgjsDefs1002"></defs><g id="SvgjsG1008"><svg xmlns="http://www.w3.org/2000/svg" viewBox="0 0 128 128" width="288" height="288"><path fill="#12c2b6" d="M92.11 119.147c-6.313 0-11.449-5.136-11.449-11.449s5.136-11.449 11.449-11.449 11.45 5.136 11.45 11.449-5.136 11.449-11.45 11.449zm0-18.898c-4.107 0-7.449 3.342-7.449 7.449s3.342 7.449 7.449 7.449c4.108 0 7.45-3.342 7.45-7.449s-3.341-7.449-7.45-7.449zm-45.357 18.898c-6.313 0-11.449-5.136-11.449-11.449s5.136-11.449 11.449-11.449 11.449 5.136 11.449 11.449-5.136 11.449-11.449 11.449zm0-18.898c-4.107 0-7.449 3.342-7.449 7.449s3.342 7.449 7.449 7.449 7.449-3.342 7.449-7.449-3.342-7.449-7.449-7.449zm49.872-9.102h-.006l-54.755-.021a9.576 9.576 0 0 1-9.382-7.747L22.351 29.434a2.003 2.003 0 0 1 1.966-2.369h94.649a5.778 5.778 0 0 1 5.39 7.867l-18.81 50.09c-1.422 3.671-5.004 6.125-8.921 6.125zM26.727 31.064l9.686 51.566a5.565 5.565 0 0 0 5.454 4.495l54.755.021h.003a5.596 5.596 0 0 0 5.185-3.553l18.81-50.089a1.765 1.765 0 0 0-.185-1.668 1.757 1.757 0 0 0-1.468-.773h-92.24z" class="color505070 svgShape"></path><path fill="#12c2b6" d="M24.314 31.064a2 2 0 0 1-1.945-1.542l-2.408-10.236A5.539 5.539 0 0 0 14.55 15H5.417a2 2 0 0 1 0-4h9.133a9.526 9.526 0 0 1 9.306 7.37l2.408 10.236a2 2 0 0 1-1.95 2.458zM60 44H27.151a2 2 0 0 1 0-4H60a2 2 0 0 1 0 4z" class="color505070 svgShape"></path></svg></g></svg>